<svg width="20" height="20" viewBox="0 0 20 20" fill="none" xmlns="http://www.w3.org/2000/svg">
<path d="M6.44445 7.33169H13.5556M6.44445 9.99847H13.5556M6.44445 12.6653H9.11111M18 9.99847C18.0002 11.4307 17.616 12.8367 16.8874 14.0697C16.1588 15.3027 15.1126 16.3176 13.858 17.0082C12.6034 17.6989 11.1864 18.0401 9.75488 17.9962C8.3234 17.9524 6.92995 17.525 5.72 16.7588L2 17.9988L3.24 14.2787C2.57649 13.2302 2.16594 12.0417 2.0408 10.8073C1.91565 9.57279 2.07935 8.32613 2.51895 7.16581C2.95855 6.0055 3.662 4.96335 4.57369 4.12173C5.48539 3.28011 6.58034 2.66209 7.772 2.31653C8.96366 1.97096 10.2194 1.90732 11.4398 2.13064C12.6603 2.35396 13.8121 2.85812 14.8042 3.60326C15.7964 4.3484 16.6015 5.31409 17.1562 6.42402C17.7108 7.53395 17.9997 8.75767 18 9.99847Z" stroke="currentColor" stroke-width="1.7" stroke-linecap="round" stroke-linejoin="round"/>
</svg>
