<svg width="28" height="28" viewBox="0 0 28 28" fill="none" xmlns="http://www.w3.org/2000/svg">
<path d="M23.0148 24.2829V12.5147H25.4716C25.5797 12.5148 25.6853 12.4817 25.774 12.4198C25.8627 12.358 25.9302 12.2704 25.9676 12.1689C26.0049 12.0674 26.0101 11.9569 25.9826 11.8523C25.9551 11.7478 25.8962 11.6542 25.8138 11.5842L14.9785 2.36013C14.7057 2.12767 14.359 2 14.0006 2C13.6422 2 13.2955 2.12767 13.0227 2.36013L2.18624 11.5836C2.10382 11.6535 2.04487 11.7472 2.01737 11.8517C1.98986 11.9563 1.99513 12.0668 2.03245 12.1683C2.06976 12.2698 2.13734 12.3574 2.22604 12.4192C2.31474 12.481 2.42029 12.5142 2.52842 12.5141H4.98521V24.2835C4.98521 24.4836 5.0647 24.6756 5.2062 24.8171C5.3477 24.9586 5.53961 25.038 5.73972 25.038H22.2603C22.4604 25.038 22.6523 24.9586 22.7938 24.8171C22.9353 24.6756 23.0148 24.483 23.0148 24.2829Z" stroke="#C42323" stroke-width="2" stroke-linecap="round" stroke-linejoin="round"/>
<path d="M10.7579 14.0525V11.917C10.7696 11.0648 11.1164 10.2515 11.7232 9.65302C12.33 9.05453 13.148 8.71899 14.0002 8.71899C14.8525 8.71899 15.6705 9.05453 16.2773 9.65302C16.8841 10.2515 17.2309 11.0648 17.2426 11.917V14.0525M9.62671 14.0525H18.3726V21.2377H9.62671V14.0525Z" stroke="#C42323" stroke-width="2" stroke-linecap="round" stroke-linejoin="round"/>
</svg>
