<?xml version="1.0" encoding="UTF-8"?>
<svg id="Layer_2" data-name="Layer 2" xmlns="http://www.w3.org/2000/svg" viewBox="0 0 200 247.97">
  <defs>
    <style>
      .cls-1 {
        fill: #f1f1f1;
      }

      .cls-2 {
        fill: #c42323;
      }
    </style>
  </defs>
  <g id="Layer_2-2" data-name="Layer 2">
    <g>
      <circle class="cls-1" cx="126.15" cy="67.87" r="51.68"/>
      <path class="cls-2" d="M189.87,228.62c-2.59-12.41-35.62-117.3-38.96-129.61-.3-1.67-2.34-3.33-4.16-3.92-2.39-.9-5.97-.86-8.96-1.13-6.44-.89-10.91,1.51-8.82,8.12,1.65,6.99,5.82,24.35,8.07,33.8.88,3.56,1.75,6.19-.54,9.01-2.69,3.4-7.53,2.04-11.4,1.96-3.63-.34-8.67-.13-11.16-2.31-2.49-1.91-3.45-4.96-3.28-7.98-.07-3.99-.17-11.93-.25-17.1-.09-6.04-.23-15.83-.29-19.83.18-3.71-1.13-6.81-5.5-7.77-3.3-.59-7.05-.68-10.33-.86-2.95-.16-5.69.79-6.75,3.37-1.46,10.95-.56,30.05-1.62,43.33-1.79,8.21-11.45,5.37-17.7,5.2-6.72.06-10.94-4.29-8.91-10.57,1.35-5.24,5.24-20.37,7.42-28.82.65-3.02,2-6.43,2.01-9.2-.41-5.25-6.42-5.77-10.61-5.88-4.56-.23-9.7-1.25-11.78,3.18-5.11,15.84-16.71,50.8-23.49,71.66-8.09,24.94-14.83,44.82-16.69,51.17-1.05,8.76,4.11,18.44,12.38,21.77,3.93,1.76,8.91,1.93,13.02,2.24,21.57,1.43,57.56,4.03,81.6,5.65,14,.98,33.59,2.32,47.15,3.26,5.35.27,11.42,1.31,16.86-.18,7.93-2.08,12.97-10.38,12.71-18.51v-.05ZM41.41,202.71c-.08-1.89.86-4.66,1.42-6.98,1.26-4.87,3.26-12.62,4.29-16.59.69-3.27,2.07-6.05,5.48-7.07,1.78-.54,4.67-.12,7.23.02,4.82.33,10.69.74,15.28,1.05,2.4.18,4.05.28,5.71,1.18,1.74.98,3.16,2.66,3.82,4.55.59,1.74.5,3.38.45,5.78-.07,2.64-.17,6.83-.25,9.97-.05,2.23-.11,4.44-.17,6.64-.08,2.47-.03,4.16-.48,5.72-.57,1.94-2.2,3.6-4.07,4.32-1.42.5-2.9.36-4.38.28-4.01-.28-12.79-.88-18.19-1.25-4.21-.39-7.19-.26-10.93-.95-2.87-.7-5.13-3.66-5.22-6.59v-.06ZM111.86,209.05c-.45-1.59-.39-3.22-.45-5.68-.04-2.93-.09-5.75-.13-8.77-.04-2.62-.08-5.23-.12-7.82-.02-2.46-.12-4.14.45-5.82.73-2.11,2.59-3.93,4.75-4.5,1.78-.5,4.49-.13,6.98,0,4.9.33,10.8.75,15.5,1.07,3.82.13,6.42.84,8.52,3.75,1.22,1.8,1.39,3.4,2.1,6.2,1.03,4.31,2.42,10.1,3.52,14.71.25,1.02.48,2.03.73,3.03.7,3.15,1.48,5.1.25,7.76-1.71,3.36-4.64,3.81-8.07,3.41-3.76-.26-10.96-.76-17.11-1.18l-6.66-.46c-2.69-.23-4.08-.13-5.92-.83-2.01-.87-3.68-2.75-4.33-4.84l-.02-.06Z"/>
      <path class="cls-2" d="M41.33,48.32c11.22-4.9,24.24-3.19,35.31,1.49,10.04,4.47,13.74,5.49,23.96.79,10.38-4.54,4.76-10.04-2.36-13.64-22.72-11.22-48.65-13.6-70.48-4.56C9.25,39.86-3.25,57.98.75,77.23c.74,4.21,3.12,8.92,7.71,9.69,2.4.43,5.44-.37,8.29-1.45,2.43-.94,4.94-2.04,7.02-3.59,4.89-3.53,3.17-9.83,3.56-14.99.33-8.18,6.43-15.33,13.93-18.53l.07-.03Z"/>
      <path class="cls-2" d="M138.02,32.56c-3.27.2-8.59-1.56-7.87-5.19.28-1.53,1.36-3.38,2.69-5.84,2.43-4.46,6.04-11.1,8.26-15.18.99-1.76,1.94-3.75,3.56-5.09,3.32-2.46,8.95-.9,10.92,1.38,1.8,2.24-.23,4.84-1.91,8.16-1.38,2.53-2.78,5.12-4.17,7.67-1.4,2.58-3.04,5.58-4.33,7.95-1.8,3.31-3.26,6.07-7.08,6.14h-.07Z"/>
      <path class="cls-2" d="M165.13,48.95c-2.6-1.38-5.61-5.65-3.06-8.95,1.06-1.4,2.9-2.74,5.28-4.57,4.29-3.29,10.65-8.18,14.6-11.22,1.75-1.31,3.6-2.89,5.6-3.47,3.89-.88,7.26,3.35,7.48,6.58.11,3.11-2.86,4.74-5.98,7.27-2.44,1.88-4.95,3.8-7.42,5.7-2.49,1.92-5.39,4.15-7.69,5.91-3.19,2.45-5.82,4.53-8.76,2.78l-.06-.03Z"/>
      <path class="cls-2" d="M165.54,80.8c-.68-2.74.3-8.41,4.06-9.93,1.58-.66,3.6-.83,6.27-1.13,4.85-.53,12.06-1.33,16.49-1.82,1.91-.18,4.06-.54,5.65.08,2.85,1.36,2.25,6.73.58,9.73-1.91,3.49-4.94,3.24-8.85,3.78-2.75.3-5.56.61-8.33.92-2.8.31-6.06.67-8.64.95-3.6.4-6.59.76-7.22-2.52v-.06Z"/>
    </g>
  </g>
</svg>