<svg width="12" height="12" viewBox="0 0 12 12" fill="none" xmlns="http://www.w3.org/2000/svg">
<path d="M6 1C8.7615 1 11 3.2385 11 6C11 8.7615 8.7615 11 6 11C3.2385 11 1 8.7615 1 6C1 3.2385 3.2385 1 6 1ZM6 7.5C4.8565 7.5 3.825 7.9805 3.096 8.75C3.46935 9.14521 3.91953 9.45995 4.41891 9.6749C4.91829 9.88986 5.45633 10.0005 6 10C6.54359 10.0004 7.08153 9.88976 7.58082 9.67481C8.08011 9.45986 8.53021 9.14515 8.9035 8.75C8.53021 8.35485 8.08011 8.04014 7.58082 7.82519C7.08153 7.61024 6.54359 7.49958 6 7.5ZM6.235 2.66C6.21625 2.61299 6.18384 2.57269 6.14195 2.54429C6.10005 2.5159 6.05061 2.50072 6 2.50072C5.94939 2.50072 5.89995 2.5159 5.85805 2.54429C5.81616 2.57269 5.78375 2.61299 5.765 2.66L5.638 2.965C5.42576 3.48254 5.02311 3.89897 4.513 4.1285L4.154 4.2885C4.1081 4.30974 4.06924 4.34367 4.042 4.38629C4.01476 4.4289 4.00029 4.47842 4.00029 4.529C4.00029 4.57958 4.01476 4.6291 4.042 4.67171C4.06924 4.71433 4.1081 4.74826 4.154 4.7695L4.534 4.9385C5.03141 5.16187 5.42733 5.56314 5.644 6.0635L5.7665 6.3465C5.8565 6.5535 6.143 6.5535 6.2335 6.3465L6.357 6.064C6.57304 5.56326 6.96891 5.16168 7.4665 4.9385L7.8465 4.7695C7.89254 4.74832 7.93154 4.71439 7.95888 4.67171C7.98622 4.62904 8.00076 4.57943 8.00076 4.52875C8.00076 4.47807 7.98622 4.42846 7.95888 4.38579C7.93154 4.34311 7.89254 4.30918 7.8465 4.288L7.4875 4.128C6.97739 3.89881 6.57458 3.48275 6.362 2.9655L6.235 2.66Z" fill="currentColor"/>
</svg>
