<svg width="12" height="12" viewBox="0 0 12 12" fill="none" xmlns="http://www.w3.org/2000/svg">
<path d="M6 1C8.7615 1 11 3.23845 11 5.99988C11 8.76131 8.7615 10.9998 6 10.9998C3.2385 10.9998 1 8.76131 1 5.99988C1 3.23845 3.2385 1 6 1ZM6 2.99995C5.86739 2.99995 5.74021 3.05263 5.64645 3.1464C5.55268 3.24016 5.5 3.36733 5.5 3.49994V5.99988C5.50003 6.13247 5.55273 6.25963 5.6465 6.35337L7.1465 7.85334C7.2408 7.94441 7.3671 7.99481 7.4982 7.99367C7.6293 7.99253 7.75471 7.93995 7.84741 7.84724C7.94011 7.75454 7.9927 7.62914 7.99384 7.49804C7.99498 7.36695 7.94458 7.24065 7.8535 7.14635L6.5 5.79289V3.49994C6.5 3.36733 6.44732 3.24016 6.35355 3.1464C6.25979 3.05263 6.13261 2.99995 6 2.99995Z" fill="currentColor"/>
</svg>
