<svg width="16" height="14" viewBox="0 0 16 14" fill="none" xmlns="http://www.w3.org/2000/svg">
<path d="M3.33328 14C3.11291 14 2.92832 13.9253 2.7795 13.776C2.63069 13.6267 2.55602 13.4421 2.5555 13.2222C2.55498 13.0024 2.62965 12.8178 2.7795 12.6684C2.92935 12.5191 3.11395 12.4444 3.33328 12.4444H12.6666C12.887 12.4444 13.0718 12.5191 13.2212 12.6684C13.3705 12.8178 13.4449 13.0024 13.4444 13.2222C13.4439 13.4421 13.3692 13.6269 13.2204 13.7768C13.0716 13.9266 12.887 14.001 12.6666 14H3.33328ZM3.87772 11.2778C3.5018 11.2778 3.16813 11.1546 2.87672 10.9083C2.58532 10.662 2.40695 10.3509 2.34161 9.97499L1.56384 5.03611C1.53791 5.03611 1.50887 5.03948 1.47672 5.04622C1.44458 5.05296 1.41528 5.05607 1.38884 5.05555C1.06476 5.05555 0.789429 4.94226 0.562836 4.71566C0.336244 4.48907 0.222688 4.21348 0.22217 3.88889C0.221651 3.5643 0.335207 3.28896 0.562836 3.06289C0.790466 2.83681 1.0658 2.72326 1.38884 2.72222C1.71187 2.72118 1.98746 2.83474 2.21561 3.06289C2.44376 3.29104 2.55706 3.56637 2.5555 3.88889C2.5555 3.97963 2.54565 4.06389 2.52595 4.14166C2.50624 4.21944 2.48369 4.29074 2.45828 4.35555L4.88883 5.44444L7.31939 2.11944C7.17679 2.01574 7.06013 1.87963 6.96939 1.71111C6.87865 1.54259 6.83328 1.36111 6.83328 1.16667C6.83328 0.842594 6.94683 0.567001 7.17394 0.33989C7.40105 0.112779 7.67639 -0.000516746 7.99994 1.7717e-06C8.3235 0.00052029 8.59909 0.114076 8.82672 0.340668C9.05435 0.567261 9.16764 0.842594 9.16661 1.16667C9.16661 1.36111 9.12124 1.54259 9.0305 1.71111C8.93975 1.87963 8.82309 2.01574 8.6805 2.11944L11.111 5.44444L13.5416 4.35555C13.5157 4.29074 13.4929 4.21944 13.4732 4.14166C13.4535 4.06389 13.4439 3.97963 13.4444 3.88889C13.4444 3.56481 13.5579 3.28922 13.785 3.06211C14.0122 2.835 14.2875 2.7217 14.611 2.72222C14.9346 2.72274 15.2102 2.8363 15.4378 3.06289C15.6655 3.28948 15.7787 3.56481 15.7777 3.88889C15.7767 4.21296 15.6634 4.48855 15.4378 4.71566C15.2123 4.94278 14.9367 5.05607 14.611 5.05555C14.5851 5.05555 14.5561 5.05244 14.5239 5.04622C14.4918 5.04 14.4625 5.03663 14.436 5.03611L13.6583 9.97499C13.5935 10.3509 13.4153 10.662 13.1239 10.9083C12.8325 11.1546 12.4986 11.2778 12.1222 11.2778H3.87772Z" fill="#C42323"/>
</svg>
