<svg width="16" height="14" viewBox="0 0 16 14" fill="none" xmlns="http://www.w3.org/2000/svg">
<mask id="path-1-inside-1_67_703" fill="white">
<path d="M8 2.625C8 2.625 8.04833 2.625 7.32444 1.75C6.54222 0.735 5.38667 0 4 0C1.78667 0 0 1.75875 0 3.9375C0 4.75125 0.248889 5.50375 0.675556 6.125C1.39556 7.18375 8 14 8 14M8 2.625C8 2.625 8 2.625 8.67556 1.75C9.45778 0.735 10.6133 0 12 0C14.2133 0 16 1.75875 16 3.9375C16 4.75125 15.7511 5.50375 15.3244 6.125C14.6044 7.18375 8 14 8 14"/>
</mask>
<path d="M8 2.625C8 2.625 8.04833 2.625 7.32444 1.75C6.54222 0.735 5.38667 0 4 0C1.78667 0 0 1.75875 0 3.9375C0 4.75125 0.248889 5.50375 0.675556 6.125C1.39556 7.18375 8 14 8 14M8 2.625C8 2.625 8 2.625 8.67556 1.75C9.45778 0.735 10.6133 0 12 0C14.2133 0 16 1.75875 16 3.9375C16 4.75125 15.7511 5.50375 15.3244 6.125C14.6044 7.18375 8 14 8 14" stroke="#FCFCFC" stroke-width="2" stroke-linecap="round" stroke-linejoin="round" mask="url(#path-1-inside-1_67_703)"/>
</svg>
