<svg width="12" height="12" viewBox="0 0 12 12" fill="none" xmlns="http://www.w3.org/2000/svg">
<path d="M6 1C3.78857 1 2 2.7215 2 4.85C2 7.7375 6 12 6 12C6 12 10 7.7375 10 4.85C10 2.7215 8.21143 1 6 1ZM6 6.225C5.62112 6.225 5.25776 6.08013 4.98985 5.82227C4.72194 5.56441 4.57143 5.21467 4.57143 4.85C4.57143 4.48533 4.72194 4.13559 4.98985 3.87773C5.25776 3.61987 5.62112 3.475 6 3.475C6.37888 3.475 6.74224 3.61987 7.01015 3.87773C7.27806 4.13559 7.42857 4.48533 7.42857 4.85C7.42857 5.21467 7.27806 5.56441 7.01015 5.82227C6.74224 6.08013 6.37888 6.225 6 6.225Z" fill="#FCFCFC"/>
</svg>
