<svg width="12" height="12" viewBox="0 0 12 12" fill="none" xmlns="http://www.w3.org/2000/svg">
<path d="M4.39726 6.33333C4.95503 6.33333 5.48995 6.10506 5.88435 5.69873C6.27875 5.2924 6.50032 4.7413 6.50032 4.16667C6.50032 3.59203 6.27875 3.04093 5.88435 2.6346C5.48995 2.22827 4.95503 2 4.39726 2C3.83949 2 3.30457 2.22827 2.91017 2.6346C2.51577 3.04093 2.29419 3.59203 2.29419 4.16667C2.29419 4.7413 2.51577 5.2924 2.91017 5.69873C3.30457 6.10506 3.83949 6.33333 4.39726 6.33333ZM8.0773 9.76333C8.42026 9.908 8.8564 10 9.41161 10C12 10 12 8 12 8C12 7.7349 11.8978 7.48065 11.7159 7.29313C11.534 7.10561 11.2873 7.00018 11.03 7H8.03524C8.28955 7.31733 8.44226 7.72333 8.44226 8.16667V8.404C8.44089 8.46013 8.43721 8.51618 8.43126 8.572C8.3872 8.98846 8.26669 9.39262 8.0773 9.76333ZM11.03 4.66667C11.03 5.10869 10.8596 5.53262 10.5562 5.84518C10.2528 6.15774 9.84131 6.33333 9.41226 6.33333C8.98321 6.33333 8.57173 6.15774 8.26834 5.84518C7.96496 5.53262 7.79452 5.10869 7.79452 4.66667C7.79452 4.22464 7.96496 3.80072 8.26834 3.48816C8.57173 3.17559 8.98321 3 9.41226 3C9.84131 3 10.2528 3.17559 10.5562 3.48816C10.8596 3.80072 11.03 4.22464 11.03 4.66667ZM1 8.33333C1 7.97971 1.13635 7.64057 1.37906 7.39052C1.62177 7.14048 1.95095 7 2.29419 7H6.50032C6.84356 7 7.17275 7.14048 7.41546 7.39052C7.65816 7.64057 7.79452 7.97971 7.79452 8.33333C7.79452 8.33333 7.79452 11 4.39726 11C1 11 1 8.33333 1 8.33333Z" fill="#FCFCFC"/>
</svg>
