<svg width="12" height="12" viewBox="0 0 12 12" fill="none" xmlns="http://www.w3.org/2000/svg">
<path d="M1.62988 2.5H7.35938C7.48708 2.49905 7.61135 2.52682 7.7207 2.57812C7.82986 2.62937 7.91813 2.70149 7.98145 2.78418L7.98535 2.78906L10.4883 5.97949L10.4912 5.9834C10.4958 5.98926 10.498 5.99422 10.499 5.99707C10.5 5.99982 10.5 6.00175 10.5 6.00293C10.5 6.00412 10.5 6.00603 10.499 6.00879L10.4912 6.02246L10.4883 6.02637L7.99219 9.21094L7.98926 9.21387C7.85988 9.38157 7.6278 9.49994 7.35547 9.5H1.62988C1.55247 9.49996 1.51736 9.46369 1.50586 9.44336C1.49982 9.43261 1.49996 9.42647 1.5 9.42578C1.50003 9.42534 1.50016 9.424 1.50098 9.42188C1.50187 9.41963 1.50338 9.41345 1.50977 9.40527L1.51074 9.40625L3.95605 6.3125L4.20117 6.00293L3.95605 5.69238L1.51074 2.59961C1.50441 2.59148 1.50183 2.58621 1.50098 2.58398C1.50012 2.58173 1.50006 2.58007 1.5 2.5791C1.49991 2.57706 1.50025 2.56935 1.50684 2.55762C1.51963 2.53501 1.55524 2.50004 1.62988 2.5Z" stroke="currentColor"/>
</svg>
