<svg width="24" height="24" viewBox="0 0 24 24" fill="none" xmlns="http://www.w3.org/2000/svg">
<path d="M19.3824 8.38956C19.2964 8.4397 17.2505 9.49779 17.2505 11.8438C17.3469 14.5194 19.8324 15.4576 19.875 15.4576C19.8324 15.5078 19.4998 16.7358 18.5145 18.0231C17.7326 19.132 16.8647 20.25 15.5469 20.25C14.2933 20.25 13.8433 19.511 12.3969 19.511C10.8435 19.511 10.404 20.25 9.21472 20.25C7.89686 20.25 6.96472 19.0721 6.14018 17.9736C5.06898 16.5359 4.1585 14.2797 4.12636 12.1134C4.1047 10.9655 4.34088 9.83704 4.94041 8.87856C5.78661 7.54048 7.29733 6.63214 8.9471 6.60219C10.2112 6.56247 11.3362 7.4109 12.1076 7.4109C12.8469 7.4109 14.229 6.60219 15.7928 6.60219C16.4678 6.60284 18.2679 6.79232 19.3824 8.38956ZM12.0007 6.37299C11.7757 5.32466 12.3969 4.27633 12.9754 3.60762C13.7147 2.79891 14.8824 2.25 15.8893 2.25C15.9536 3.29833 15.5462 4.32647 14.8181 5.07528C14.1647 5.88399 13.0397 6.4928 12.0007 6.37299Z" fill="white"/>
</svg>
