<svg width="22" height="22" viewBox="0 0 22 22" fill="none" xmlns="http://www.w3.org/2000/svg">
<path d="M20.6261 11.2137C20.6261 10.4224 20.5605 9.84485 20.4187 9.24597H11.1975V12.8179H16.6102C16.5011 13.7055 15.9118 15.0424 14.6022 15.9406L14.5839 16.0602L17.4995 18.2737L17.7015 18.2935C19.5566 16.6144 20.6261 14.144 20.6261 11.2137Z" fill="#4285F4"/>
<path d="M11.1969 20.625C13.8486 20.625 16.0748 19.7694 17.7008 18.2936L14.6016 15.9408C13.7723 16.5076 12.6592 16.9033 11.1969 16.9033C8.5997 16.9033 6.39536 15.2243 5.60957 12.9036L5.4944 12.9131L2.46274 15.2125L2.4231 15.3205C4.03815 18.4647 7.35561 20.625 11.1969 20.625Z" fill="#34A853"/>
<path d="M5.61006 12.9036C5.40272 12.3047 5.28273 11.663 5.28273 11C5.28273 10.3369 5.40272 9.69524 5.59915 9.09636L5.59366 8.96881L2.524 6.63257L2.42357 6.67938C1.75792 7.98412 1.37598 9.44929 1.37598 11C1.37598 12.5507 1.75792 14.0158 2.42357 15.3205L5.61006 12.9036Z" fill="#FBBC05"/>
<path d="M11.1969 5.09664C13.0412 5.09664 14.2852 5.87733 14.9945 6.52974L17.7664 3.8775C16.064 2.32681 13.8487 1.375 11.1969 1.375C7.35563 1.375 4.03816 3.53526 2.4231 6.6794L5.59868 9.09638C6.39538 6.77569 8.59973 5.09664 11.1969 5.09664Z" fill="#EB4335"/>
</svg>
