<svg width="20" height="20" viewBox="0 0 20 20" fill="none" xmlns="http://www.w3.org/2000/svg">
  <path 
    d="M16.0948 17.4756V9.30249H17.8011C17.8762 9.30255 17.9495 9.27954 18.0111 9.23659C18.0727 9.19364 18.1196 9.13282 18.1455 9.06234C18.1715 8.99185 18.1751 8.91511 18.156 8.84249C18.1369 8.76986 18.096 8.70485 18.0387 8.65624L10.5136 2.25011C10.3242 2.08867 10.0834 2 9.83447 2C9.58555 2 9.34477 2.08867 9.1553 2.25011L1.62934 8.65581C1.5721 8.70442 1.53116 8.76943 1.51206 8.84206C1.49296 8.91469 1.49662 8.91469 1.52253 9.06191C1.54845 9.13239 1.59538 9.19322 1.65699 9.23617C1.71859 9.27912 1.79189 9.30212 1.86699 9.30207H3.57324V17.476C3.57324 17.615 3.62845 17.7482 3.72672 17.8465C3.82499 17.9448 3.95827 18 4.09725 18H15.5708C15.7098 18 15.8431 17.9448 15.9414 17.8465C16.0396 17.7482 16.0948 17.6145 16.0948 17.4756Z" 
    stroke="currentColor" 
    stroke-linecap="round" 
    stroke-linejoin="round"
  />
  <path 
    d="M7.58247 10.3704V8.88729C7.59062 8.29544 7.83146 7.73059 8.25287 7.31494C8.67429 6.89929 9.2424 6.66626 9.83431 6.66626C10.4262 6.66626 10.9943 6.89929 11.4158 7.31494C11.8372 7.73059 12.078 8.29544 12.0862 8.88729V10.3704M6.79688 10.3704H12.8709V15.3605H6.79688V10.3704Z" 
    stroke="currentColor" 
    stroke-linecap="round" 
    stroke-linejoin="round"
  />
</svg>